<svg xmlns="http://www.w3.org/2000/svg" width="295.926" height="76.375" viewBox="0 0 295.926 76.375"><g transform="translate(0 0)"><g transform="translate(0 0)"><path d="M2484.973,8111.669c3.378-.19,12.607-.393,15.568.3,3.484-.536,13.676.131,16.626-.143,1.879-.179,1.308.368,1.712-.761l-8.658-8.979-2,1.675c-2.866,2.962-4.579,4.817-7.671,7.611-2.842-2.616-6.648-7.372-9.68-9.37-.927,2.354-7.968,6.66-8.872,9.348Z" transform="translate(-2481.124 -8092.331)" fill="#b71f6f" fill-rule="evenodd"/><path d="M3237.668,8864.9c-1.784,1.834-7.683,8.338-9.621,8.778l-.047.284,9.609,9.076c.572-2.333.3-6.6.3-8.979,0-2.332-.238-7.137.167-8.955a36.091,36.091,0,0,1,4.52,4.362c1.416,1.452,3.782,3.141,4.448,5.079l9.6-9.869.012-.274c-.595-.3-.369.059-.643-.4-.4,1.129.167.582-1.712.76C3251.345,8865.035,3241.153,8864.368,3237.668,8864.9Z" transform="translate(-3218.252 -8845.271)" fill="#9e1c61" fill-rule="evenodd"/><path d="M2412.072,7350.028v.214l.011,6.742v5.7l-.083,5.912h.393l9.312-9.4.048-.285-9.2-8.979c-.095-.653-.452-17.41.3-18.706l-.773-.227Z" transform="translate(-2411.956 -7330.5)" fill="#9964ad" fill-rule="evenodd"/><path d="M2451.6,12088.406l.642-.023c3.342-1.653,6.612-7,9.823-8.933l-.274-.45-18.79.048.072.4C2445.985,12082.494,2448.554,12085.455,2451.6,12088.406Z" transform="translate(-2442.587 -12022.033)" fill="#12a8b4" fill-rule="evenodd"/><path d="M4084,11311.286l.178.857.107-.023c.667-.439,2.4-.369,3.628-.417,1.712-.071,3.543-.01,5.268-.01,3.187,0,6.541.106,9.692-.036-.88-1.644-8.158-8.552-9.74-9.658C4092.55,11303.365,4085.462,11309.719,4084,11311.286Z" transform="translate(-4064.072 -11254.272)" fill="#89c546" fill-rule="evenodd"/><path d="M5693.035,12902.383l-.036.346c6.018-.322,13.51.355,19.135-.332l-.821-1.215-8.836-8.182Z" transform="translate(-5653.936 -12826.354)" fill="#89c546" fill-rule="evenodd"/><path d="M2445,9711.395l.048.117,18.921.215-.048-.654-9.609-9.072Z" transform="translate(-2444.564 -9673.303)" fill="#2463ac" fill-rule="evenodd"/><path d="M3248,10525.871c1.153,3.01,7.646,6.8,9.216,9.7l.273.453-.012.463.643-.013-.179-.854c-.416-2.452-.44-17.389-.036-18.207V10517l-.38.058Z" transform="translate(-3238.014 -10478.61)" fill="#71bf4b" fill-rule="evenodd"/><path d="M5636.011,7308.135l-.011.273,9.43-9.621c-1.38-2.7-7.623-7.2-8.883-9.788l-.547.285Z" transform="translate(-5597.614 -7288.999)" fill="#f9a61d" fill-rule="evenodd"/><path d="M5681,7298.787a96.554,96.554,0,0,0,7.968-7.778l1.617-1.582.1-.416-6.315.012-5.494-.012H5672l.118-.012C5673.38,7291.591,5679.623,7296.087,5681,7298.787Z" transform="translate(-5633.187 -7288.999)" fill="#6b016b" fill-rule="evenodd"/><path d="M4883,12160.049a57.279,57.279,0,0,0,9.608,9.158l-.225-18.207c-1.131.426-1.7,1.307-2.629,2.225-.785.783-1.45,1.271-2.331,2.117A32.872,32.872,0,0,0,4883,12160.049Z" transform="translate(-4853.57 -12093.179)" fill="#89c546" fill-rule="evenodd"/><path d="M2467.2,8908.922c1.938-.437,7.837-6.944,9.621-8.775-2.961-.689-12.19-.488-15.567-.3l-3.258.094Z" transform="translate(-2457.409 -8880.513)" fill="#8d2789" fill-rule="evenodd"/><path d="M2408.43,10498.315v6.219l-.083,5.911c-.011,1.476-.143.572.464.88l-.071-.4c1.938-2.912,8.432-7.552,9.3-9.609-1.248-.677-8.372-7.872-9.229-9.192l-.048-.119h-.392l.036.417Z" transform="translate(-2408.327 -10453.907)" fill="#65c7cc" fill-rule="evenodd"/><path d="M3220,12125.93c2.058,2.832,6.886,7.09,9.728,9.729l.084-18.2.012-.463C3226.612,12118.928,3223.341,12124.277,3220,12125.93Z" transform="translate(-3210.347 -12059.582)" fill="#079846" fill-rule="evenodd"/><path d="M4855,7322.466l8.657,8.979c.274.465.048.107.643.4l-.012-18.849A64.629,64.629,0,0,0,4855,7322.466Z" transform="translate(-4825.903 -7312.714)" fill="#f05825" fill-rule="evenodd"/><path d="M4036,8974.935l.048.653.106.023.381-.059,8.9-9.111c-.666-1.938-3.032-3.625-4.447-5.077a36.068,36.068,0,0,0-4.519-4.364c-.4,1.821-.167,6.626-.167,8.955C4036.3,8968.331,4036.571,8972.6,4036,8974.935Z" transform="translate(-4016.642 -8937.164)" fill="#b71f6f" fill-rule="evenodd"/><path d="M4056.917,10570.206c1.463-1.568,8.551-7.92,9.133-9.286l-8.431-8.5-.738-.416C4056.477,10552.82,4056.5,10567.758,4056.917,10570.206Z" transform="translate(-4036.988 -10513.193)" fill="#35b24a" fill-rule="evenodd"/><path d="M4108,12110.509a64.578,64.578,0,0,0,9.217,9.027,32.944,32.944,0,0,1,4.424-4.708c.88-.845,1.545-1.333,2.331-2.119.927-.913,1.5-1.793,2.628-2.223l.06-.486-.071.046c-3.152.143-6.5.036-9.693.036-1.724,0-3.556-.059-5.268.013C4110.4,12110.143,4108.666,12110.071,4108,12110.509Z" transform="translate(-4087.786 -12052.666)" fill="#71bf4b" fill-rule="evenodd"/><path d="M5672.226,12128.693h.061l9.441-9.384-9.669-9.31-.059.486Z" transform="translate(-5633.187 -12052.666)" fill="#35b24a" fill-rule="evenodd"/><path d="M2443,11272.752l18.79-.048c-1.57-2.9-8.063-6.7-9.217-9.7l-.273.142C2451.431,11265.2,2444.938,11269.838,2443,11272.752Z" transform="translate(-2442.587 -11215.738)" fill="#64c19c" fill-rule="evenodd"/><path d="M2449,10502c.856,1.319,7.98,8.515,9.229,9.194l.274-.145,9.526-8.812-.107-.023Z" transform="translate(-2448.516 -10463.787)" fill="#2583c3" fill-rule="evenodd"/><path d="M2444.011,7368.707l3.259-.1-2.973-.32c.9-2.688,7.944-6.992,8.872-9.348l-8.86-8.943C2443.559,7351.3,2443.916,7368.053,2444.011,7368.707Z" transform="translate(-2443.42 -7349.274)" fill="#9e1c61" fill-rule="evenodd"/></g><g transform="translate(45.652 1.498)"><path d="M6258.574,8529.289c-.071-.68-.1-1.522-.1-2.522s.024-2.056.071-3.151.107-2.176.178-3.27.131-2.058.2-2.915c.072-.642.144-1.224.2-1.759s.118-1.035.154-1.51a3.6,3.6,0,0,0-.023-1.356c-.083-.214-.213-.3-.381-.227a1.792,1.792,0,0,0-.594.488,6.405,6.405,0,0,0-.583.8c-.238.37-.642,1.059-1.2,2.07a38.56,38.56,0,0,0-1.737,3.567,34.17,34.17,0,0,0-1.582,4.6,23.022,23.022,0,0,0-.8,5.186,25.551,25.551,0,0,0,.178,3.281,4.339,4.339,0,0,0,.6,1.893,6.6,6.6,0,0,1-2.665-.727,6.254,6.254,0,0,1-2-1.6,6.363,6.363,0,0,1-1.165-2.271,7.859,7.859,0,0,1-.262-2.712c0-.678.047-1.726.131-3.142s.191-3.044.309-4.886.261-3.829.429-5.982.332-4.294.487-6.436.309-4.221.464-6.23.3-3.816.427-5.4.238-2.89.309-3.912.107-1.616.107-1.783c.024-.643.036-1.154.024-1.535a3.867,3.867,0,0,0-.285-1.178,5.089,5.089,0,0,1,.892.594c.6.416,1.285.965,2.07,1.631s1.534,1.355,2.248,2.069a6.92,6.92,0,0,1,1.438,1.844,6.319,6.319,0,0,1,.429,1.689,7,7,0,0,1-.179,2.4,14.247,14.247,0,0,0-.713,2.712c-.309,1.5-.617,3.342-.939,5.544s-.666,4.6-1,7.229-.618,5.2-.82,7.719l.107-.356c.4-.951.749-1.809,1.047-2.558s.535-1.426.737-2.045.4-1.153.583-1.629a13.6,13.6,0,0,1,.643-1.393,10.451,10.451,0,0,1,1.535-2.4,3.1,3.1,0,0,1,1.735-1.068,2.929,2.929,0,0,1,1.642.379,10.917,10.917,0,0,1,2.046,1.331,9.744,9.744,0,0,1,1.783,1.951,4.247,4.247,0,0,1,.822,2.271,13.089,13.089,0,0,1-.2,3.188c-.214,1.178-.452,2.4-.713,3.687s-.547,2.58-.82,3.912a22.228,22.228,0,0,0-.464,3.876c-.036.584.024.929.179,1.024a.43.43,0,0,0,.536-.071,3.408,3.408,0,0,0,.618-.619,4.166,4.166,0,0,0,.4-.584,25.609,25.609,0,0,0,1.558-3.328c.535-1.32,1.082-2.642,1.665-3.937l2.4-6.03a5.554,5.554,0,0,0,.107.9,9.737,9.737,0,0,1,.094,1.45,14.8,14.8,0,0,1-.154,2.022,13.07,13.07,0,0,1-.665,2.628l-.2.355-.607,1.845q-.571,1.479-1.1,3.044a19.321,19.321,0,0,1-1.249,2.88,9.307,9.307,0,0,1-1.582,2.33,3.339,3.339,0,0,1-1.794,1.046,2.79,2.79,0,0,1-1.428-.2,5.259,5.259,0,0,1-1.581-.974,6.992,6.992,0,0,1-1.357-1.606A4.351,4.351,0,0,1,6258.574,8529.289Zm21.062-5.3a9.259,9.259,0,0,1-.393,1.581,18.782,18.782,0,0,1-.869,2.295c-.357.822-.761,1.655-1.225,2.512a19.232,19.232,0,0,1-1.4,2.246,7.316,7.316,0,0,1-1.427,1.51,1.224,1.224,0,0,1-1.285.273,16.422,16.422,0,0,1-2.807-1.532,3.54,3.54,0,0,1-1.582-2.249,19.1,19.1,0,0,1-.238-5.623,38.871,38.871,0,0,1,1.309-7c.236-.82.558-1.759.938-2.817a16.186,16.186,0,0,1,1.511-3.009,9.042,9.042,0,0,1,2.248-2.4,5.214,5.214,0,0,1,3.176-.977,6.975,6.975,0,0,1,2.2.357,7.417,7.417,0,0,1,3.367,2.271,4.8,4.8,0,0,1,.867,1.464,2.781,2.781,0,0,1,.215,1.225.554.554,0,0,1-.619.559,1.081,1.081,0,0,1-.951-.4c-.178-.273-.369-.584-.56-.916a4.505,4.505,0,0,0-.689-.954,1.778,1.778,0,0,0-1.332-.426,2.086,2.086,0,0,0-1.653.916,10.7,10.7,0,0,0-1.356,2.223,19.3,19.3,0,0,0-1.046,2.688c-.3.916-.524,1.665-.689,2.247,0,.024-.084.369-.262,1.022s-.357,1.4-.56,2.295-.4,1.785-.618,2.688-.333,1.617-.4,2.164c-.071.416.012.678.227.8s.511.035.845-.238a6,6,0,0,0,.951-1.166,19.655,19.655,0,0,0,1.094-1.927c.38-.724.762-1.5,1.153-2.319s.749-1.6,1.071-2.377.607-1.487.845-2.178.4-1.225.511-1.629l.4-3.222c0-.038.238.095.725.381s1.023.688,1.653,1.176a23.367,23.367,0,0,1,1.844,1.618,5.657,5.657,0,0,1,1.248,1.63,2.236,2.236,0,0,1,.084,1.533c-.155.548-.333,1.309-.535,2.295,0,0-.048.25-.131.749s-.178,1.084-.285,1.784-.191,1.438-.273,2.2a15.546,15.546,0,0,0-.131,1.912c.036.62.131.976.309,1.071a.425.425,0,0,0,.535-.071,3.015,3.015,0,0,0,.536-.644q.25-.409.356-.606a25.545,25.545,0,0,0,1.558-3.328c.522-1.32,1.082-2.642,1.665-3.937l2.4-6.03a6.757,6.757,0,0,0,.1.9,8.13,8.13,0,0,1,.106,1.45,14.791,14.791,0,0,1-.154,2.022,14.043,14.043,0,0,1-.667,2.628l-.2.355-.618,1.845c-.369.986-.737,2-1.095,3.044a19.168,19.168,0,0,1-1.248,2.88,10.793,10.793,0,0,1-1.558,2.378,2.676,2.676,0,0,1-1.82,1,3.279,3.279,0,0,1-1.464-.38,5.388,5.388,0,0,1-1.4-1.106,8.174,8.174,0,0,1-1.178-1.676,6.443,6.443,0,0,1-.653-2.106,12.088,12.088,0,0,1-.262-1.38c-.071-.51-.131-1-.178-1.474s-.094-.9-.131-1.285S6279.671,8524.151,6279.636,8523.984Zm21.109.559c-.215.679-.476,1.486-.8,2.428a11.924,11.924,0,0,1-1.2,2.532c-.4.678-.82,1.344-1.249,1.986a19.285,19.285,0,0,1-1.225,1.688,5.4,5.4,0,0,1-1.131,1.071,1.064,1.064,0,0,1-1.046.153,15.751,15.751,0,0,1-2.865-1.532,3.588,3.588,0,0,1-1.583-2.249,18.777,18.777,0,0,1-.226-5.623,37.6,37.6,0,0,1,1.3-7,29.228,29.228,0,0,1,1.261-3.448,23.175,23.175,0,0,1,1.6-3.128,15.5,15.5,0,0,1,1.82-2.4,4.648,4.648,0,0,1,1.915-1.295,2.831,2.831,0,0,1,.808,0,4.65,4.65,0,0,1,1.333.332,5.588,5.588,0,0,1,1.332.736,2.486,2.486,0,0,1,.869,1.226c.071-1.154.167-2.449.285-3.877s.238-2.9.382-4.4.261-2.963.379-4.4.239-2.724.357-3.877.213-2.116.286-2.865.1-1.178.1-1.272c0-.655,0-1.155-.024-1.512a3.43,3.43,0,0,0-.273-1.153,5.611,5.611,0,0,1,.916.594c.617.416,1.309.965,2.092,1.606s1.546,1.332,2.272,2.047a6.058,6.058,0,0,1,1.414,1.843,6.329,6.329,0,0,1,.429,1.677,7.78,7.78,0,0,1-.178,2.461s-.06.429-.179,1.3-.286,2.022-.511,3.451-.476,3.08-.762,4.934-.583,3.771-.869,5.732-.582,3.9-.867,5.815-.56,3.663-.8,5.221-.429,2.854-.559,3.938-.227,1.724-.262,1.961c-.073.584-.024.917.131,1a.5.5,0,0,0,.535-.071,3.557,3.557,0,0,0,.641-.595,3.016,3.016,0,0,0,.429-.584,25.413,25.413,0,0,0,1.559-3.328c.535-1.32,1.07-2.642,1.617-3.937l2.449-6.03a5.566,5.566,0,0,0,.107.9,9.6,9.6,0,0,1,.095,1.45,13.522,13.522,0,0,1-.178,2.022,15.163,15.163,0,0,1-.689,2.628l-.155.355-.666,1.845c-.369.986-.736,2-1.094,3.044a24.123,24.123,0,0,1-1.2,2.88,9.32,9.32,0,0,1-1.582,2.33,3.348,3.348,0,0,1-1.8,1.046,2.724,2.724,0,0,1-1.427-.225,5.667,5.667,0,0,1-1.583-1.025,6.867,6.867,0,0,1-1.333-1.664,4.726,4.726,0,0,1-.618-2.141Zm.713-12.725c-.178-.51-.346-.749-.511-.713a2.372,2.372,0,0,0-.417.095,6.409,6.409,0,0,0-2.271,3.176,58.973,58.973,0,0,0-1.914,5.672c0,.024-.047.263-.155.691s-.225.962-.38,1.6-.322,1.356-.487,2.118-.322,1.475-.464,2.128-.238,1.2-.3,1.653-.071.712,0,.748c.3.2.678.119,1.118-.236a7.408,7.408,0,0,0,1.38-1.559c.476-.679.963-1.464,1.462-2.341a27.594,27.594,0,0,0,1.3-2.666,25.708,25.708,0,0,0,.927-2.473,6.537,6.537,0,0,0,.356-1.772Zm10.679,17.327c0-.928.012-1.985.024-3.175s.047-2.415.082-3.651.06-2.474.071-3.687.036-2.318.049-3.341.035-1.88.06-2.581.024-1.166.024-1.4c0-.69-.013-1.2-.024-1.561a3.76,3.76,0,0,0-.286-1.152,3.511,3.511,0,0,1,.821.512c.547.367,1.177.844,1.89,1.4a27.362,27.362,0,0,1,2.094,1.818,5.3,5.3,0,0,1,1.331,1.739,4.709,4.709,0,0,1,.453,1.712,7.941,7.941,0,0,1-.2,2.425s-.071.477-.227,1.429-.333,2.068-.535,3.329-.416,2.486-.618,3.7-.321,2.069-.357,2.58q-.053.876.18,1a.5.5,0,0,0,.535-.071,2.88,2.88,0,0,0,.618-.595,4.123,4.123,0,0,0,.4-.584,25.3,25.3,0,0,0,1.558-3.328c.536-1.32,1.083-2.642,1.665-3.937l2.4-6.03a5.654,5.654,0,0,0,.106.9,9.728,9.728,0,0,1,.095,1.45,14.722,14.722,0,0,1-.154,2.022,13.137,13.137,0,0,1-.665,2.628l-.2.355-.605,1.845q-.573,1.479-1.106,3.044a19.321,19.321,0,0,1-1.249,2.88,9.294,9.294,0,0,1-1.582,2.33,3.339,3.339,0,0,1-1.795,1.046,2.627,2.627,0,0,1-1.4-.225,5.928,5.928,0,0,1-1.559-1.025,6.511,6.511,0,0,1-1.309-1.664A4.836,4.836,0,0,1,6312.138,8529.146Zm1.272-30.622a14.671,14.671,0,0,1,3.734,2.175,6.388,6.388,0,0,1,1.76,2.177,4.147,4.147,0,0,1,.393,2.141,12.151,12.151,0,0,1-.393,2.094c-.178.69-.355,1.343-.511,2a4.191,4.191,0,0,0-.024,1.844,12.286,12.286,0,0,1-3.211-1.975,5.62,5.62,0,0,1-1.487-2.022,4.793,4.793,0,0,1-.355-2.069,20.843,20.843,0,0,1,.2-2.094c.106-.7.178-1.4.225-2.116A4.846,4.846,0,0,0,6313.41,8498.523Zm21.681,15.639a3.133,3.133,0,0,0-.06-1.356c-.1-.214-.238-.3-.4-.227a1.639,1.639,0,0,0-.584.488,3.807,3.807,0,0,0-.547.8c-.262.441-.714,1.225-1.345,2.367a37.588,37.588,0,0,0-1.926,4.174,36.459,36.459,0,0,0-1.63,5.411,21.668,21.668,0,0,0-.463,6.09l.047.048-.047-.048.047.048a5.478,5.478,0,0,0,1.13,2.295,8.85,8.85,0,0,1-1.915-.227,6.113,6.113,0,0,1-1.975-.819,5.671,5.671,0,0,1-1.58-1.535,5.018,5.018,0,0,1-.82-2.378,18.546,18.546,0,0,1-.145-2.522q0-1.515.071-3.175c.049-1.106.12-2.2.2-3.269s.167-2.035.227-2.893l.618-6.028a5.227,5.227,0,0,0-.2-1.605c-.143-.394-.285-.8-.464-1.2a3.453,3.453,0,0,1,.8.512c.524.367,1.143.844,1.845,1.4a26.991,26.991,0,0,1,2.033,1.818,5.365,5.365,0,0,1,1.308,1.739,10.587,10.587,0,0,1,.464,1.247,5.452,5.452,0,0,1,.154,1.665c.4-1.094.726-2.01.964-2.759a13.756,13.756,0,0,1,.868-2.105,10.483,10.483,0,0,1,1.534-2.4,3.087,3.087,0,0,1,1.8-1.068,2.916,2.916,0,0,1,1.6.379,10,10,0,0,1,2.07,1.331,9.815,9.815,0,0,1,1.795,1.951,4.317,4.317,0,0,1,.809,2.271,7.558,7.558,0,0,1-.153,2.344c.451-1.048.784-1.951,1.022-2.7a13.953,13.953,0,0,1,.867-2.105,10.484,10.484,0,0,1,1.535-2.4,3.109,3.109,0,0,1,1.735-1.068,2.9,2.9,0,0,1,1.641.379,10.47,10.47,0,0,1,2.047,1.331,9.734,9.734,0,0,1,1.784,1.951,4.253,4.253,0,0,1,.82,2.271,13.132,13.132,0,0,1-.2,3.188c-.2,1.178-.44,2.4-.714,3.687s-.547,2.58-.82,3.912a22.086,22.086,0,0,0-.464,3.876c-.035.584.022.929.178,1.024a.43.43,0,0,0,.536-.071,3.058,3.058,0,0,0,.617-.619,3.275,3.275,0,0,0,.405-.584,25.421,25.421,0,0,0,1.558-3.328c.535-1.32,1.082-2.642,1.665-3.937l2.4-6.03a5.541,5.541,0,0,0,.106.9,9.728,9.728,0,0,1,.095,1.45,14.722,14.722,0,0,1-.154,2.022,13.8,13.8,0,0,1-.654,2.628l-.214.355-.606,1.845q-.571,1.479-1.105,3.044a19.323,19.323,0,0,1-1.25,2.88,9.017,9.017,0,0,1-1.581,2.33,3.341,3.341,0,0,1-1.8,1.046,2.784,2.784,0,0,1-1.427-.2,5.258,5.258,0,0,1-1.582-.974,6.963,6.963,0,0,1-1.355-1.606,4.327,4.327,0,0,1-.643-2.129c-.06-.68-.1-1.522-.1-2.522s.024-2.056.071-3.151.108-2.176.18-3.27.143-2.058.2-2.915c.07-.642.144-1.224.215-1.759s.118-1.035.142-1.51a3.565,3.565,0,0,0-.023-1.356c-.083-.214-.214-.3-.381-.227a1.652,1.652,0,0,0-.582.488,6.373,6.373,0,0,0-.6.8c-.273.441-.737,1.261-1.4,2.474a36.031,36.031,0,0,0-1.963,4.318,34.938,34.938,0,0,0-1.593,5.47,19.165,19.165,0,0,0-.3,5.936,6.576,6.576,0,0,0,1.022,2.188,8.638,8.638,0,0,1-1.9-.227,6.124,6.124,0,0,1-1.939-.819,5.687,5.687,0,0,1-1.581-1.535,5.039,5.039,0,0,1-.821-2.378c-.071-.68-.1-1.522-.1-2.522s.024-2.068.071-3.175.107-2.2.179-3.269.144-2.035.2-2.893Z" transform="translate(-6247.05 -8473.915)" fill="#410066"/><path d="M16028.426,7421.934c.236-1.047-.012-3.272,1.068-3.558a25.858,25.858,0,0,1,.346,8.694,13.822,13.822,0,0,1-.523,1.962,3.537,3.537,0,0,1-.689-1.8,13.781,13.781,0,0,1-.2-2.282l-1.061-.215c-.01,2.271-.187,4.056-.187,6.434.01,1.345-.178,2.01-.178,3.188v9.775c0,2.367.178,4.067.178,6.4v6.577c0,2.271.178,4.02.178,6.385,0,5.127.275,10.656.537,15.64.164,3.056.045,6.387.711,9.24l.285-.595a19.549,19.549,0,0,0,.6-5.981c.023-.855.143-.809.191-1.594.021-.631-.035-1.319-.014-1.962.049-.785.178-.845.191-1.76l.521-12.809c-.01-2.343.371-4.972.359-7.278,0-1.225-.037-2.521,0-3.734.021-.856.141-.821.178-1.593l.355-22.931c0-1.5-.178-2.259-.178-3.721,1.547.736,6.16.225,9.063,5.85,2.568,4.972.166,6.982-2.547,10.621a12.614,12.614,0,0,0-2.781,8.039,14.156,14.156,0,0,0,2.484,8.183,6.817,6.817,0,0,0,1.6,2.129c-.811,3.484-1.881,8.111-1.166,12.189.32,1.88,1.379,2.616,2.863,3.521,2.3,1.38,3.3,1.831,6.066-3.331a24.287,24.287,0,0,0,1.855-4.186c.189-.582.227-1.106.691-1.439a18.447,18.447,0,0,0,1.059,6.221c.711,1.533,2.424,3.365,4.445,3.365,2.9,0,5.248-8.324,6.15-10.906,1.271-3.651,1.271-4.114.961-7.919l-.818,1.854c-1.273,3.2-2.5,6.72-4.045,9.812-.5,1-1.057,2.938-2.248,3.258-.842-1.6-.035-4.411.191-6.029.453-3.307,1.77-4.674-.084-7.052-.7-.9-3.8-3.532-4.9-3.627a18.633,18.633,0,0,1-2.307,8.538c-.629,1.262-2.975,6.743-4.271,6.743-1.068,0-.094-2.723.07-3.472a29.162,29.162,0,0,0,.822-3.807,11.989,11.989,0,0,1,2.129.357c-.227-.547-1.32-.846-1.951-.893a18.19,18.19,0,0,0,.809-2.747,16.407,16.407,0,0,1,2.25-5.2c1.057-1.485,2.568-2.247,3.9-.438l1.035,1.629h1.236c1.1-4.566-7.752-9.169-11.975-2.913a19.387,19.387,0,0,0-2.592,5.934c-1.8-1.2-3.379-5.554-3.379-7.813a19.2,19.2,0,0,1,.916-6.374c.965-2.557,3.258-4.27,4.662-6.541,2.879-4.65.5-10.405-3.613-13.379a10.016,10.016,0,0,0-1.783-1.071,14.157,14.157,0,0,0-4.973-1.249,21.384,21.384,0,0,0-.7-5.685c-.178-.653-.4-1.022-.547-1.592-1.367.118-1.439,1.8-1.676,3.114C16027.666,7419.923,16027.188,7421.635,16028.426,7421.934Z" transform="translate(-15910.691 -7415)" fill="#410066" fill-rule="evenodd"/><path d="M24034.156,9691.253c0-.451.285-.023.107,0C24034.264,9691.253,24034.156,9691.753,24034.156,9691.253Zm-18.115-19.36c0,4.174-.891,4.245-.891,7.456,0,2.7,2.127,4,2.127,4.27,0,1.511-2.91,8.267-3.043,9.039-.223,1.237.453,1.844.738,3.031.891-.652,4.242-10.595,4.258-10.834,2.1.489.213.714,4.268.714-1.354,2.57-2.346,3.771-3.041,7.267-.539,2.737-.672,6.291.605,8.849,1,1.987,2.213,3.068,4.563,3.068,2.238,0,4.045-3.094,4.93-4.853.59-1.214,1.053-2.093,1.6-3.366a27.084,27.084,0,0,0,1.477-3.509.392.392,0,0,1,.045.132l.168.536a3.679,3.679,0,0,0,1.021,2l1.893-4.674a42.214,42.214,0,0,1,2.02-4.554c0,2.925,4.793,16.055-3.066,13.891a13.052,13.052,0,0,1-2.26-.929c.225,2.759,3.512,5.686,6.563,5.686h1.074c3.545,0,6.873-3.806,8.348-6.03a33.966,33.966,0,0,0,3.271-7.4c.676-2.628.463-3.225.248-5.756-1.377,2.307-3.057,8.692-6.48,12.5-.514.559-.045.26-.773.64a8.97,8.97,0,0,0-.143-3.222c-.844-5.042-3.713-12.618,1.211-15.424a2.524,2.524,0,0,1,2.133-.357c-.133-1.629-4.3-4.269-5.867-4.269-3.662,0-5.52,7.265-6.943,10.81a34.978,34.978,0,0,1-1.76,4.295c0-.954.561-3.818-.178-4.973l-1.617,4.233c-.941,2.355-4.092,10.467-6.553,11.048-1.857-2.781,2.295-12.821,3.789-15.579.707-1.3,1.857-2.092-1.078-4.721a6.105,6.105,0,0,0-3.428-1.559c-.662,2.9-1.2,3.734-3.725,3.734a2.927,2.927,0,0,1-1.424-.357c.2-2.4,3.234-6.028-.748-9.727a9.093,9.093,0,0,0-3.51-2A2.7,2.7,0,0,1,24016.041,9671.893Z" transform="translate(-23802.895 -9644.171)" fill="#410066" fill-rule="evenodd"/><path d="M21523.33,10074.713c2.912,0,4.3-.084,7.037,1.309a13.32,13.32,0,0,1,7.707,12.012h-27.359a13.7,13.7,0,0,1,3.766-9.193C21516.277,10077.008,21519.807,10074.713,21523.33,10074.713Zm-13.33,13.32c0,11.988,12.26,17.529,20.383,13.449a14.718,14.718,0,0,0,6.922-6.576c4.77-8.859-2-20.906-12.205-20.906-2.973,0-4.35.131-6.93,1.426a13.47,13.47,0,0,0-4.035,2.879A14.421,14.421,0,0,0,21510,10088.033Z" transform="translate(-21328.482 -10042.377)" fill="#410066" fill-rule="evenodd"/><path d="M20213.664,8447.057l-1.25,17.77c-.156,3.176-.895,10.928-.895,12.975l-.52,11.9c0,2.605,1.617,4.615,4.258,4.615,2.52,0,3.438-.621,5.281-2.891a27.35,27.35,0,0,0,3.578-6.9c1.68-5.02,1.449-3.412,1.449-8.859h-.359c-.3,1.32-2.7,6.824-3.375,8.35-3.582,8.039-6.043,6.91-6.043,5.861a46.712,46.712,0,0,1,.715-6.209l2.676-18.48c.4-2.971,1.77-10.014,1.309-12.166-.418-1.926-3.32-4.268-5.031-5.637a5.994,5.994,0,0,0-2.152-1.391A4.493,4.493,0,0,1,20213.664,8447.057Z" transform="translate(-20044.932 -8433.738)" fill="#410066" fill-rule="evenodd"/><path d="M19061.855,10314.07c0,5.125-.178,9.715-.178,14.745,0,2.368-.488,5.007.238,6.864.605,1.521,2.377,3.438,4.553,3.438,2.428,0,4.381-4.866,5.094-7,.518-1.532.971-2.961,1.57-4.471,1.531-3.985.8-4.722.8-7.362a1.069,1.069,0,0,0-.225.3,3.39,3.39,0,0,0-.238.477c-1.252,2.948-3.211,8.372-4.447,10.833-.346.678-.619,1.285-.955,1.892-.4.7-.564,1.225-1.6,1.25,0-4.26,1.965-11.787,1.965-14.214,0-3.5-4.166-6.088-6.756-7.823C19061.738,10313.737,19061.855,10313.4,19061.855,10314.07Z" transform="translate(-18909.121 -10278.535)" fill="#410066" fill-rule="evenodd"/><path d="M19165,9468.743c0,2.819,3.387,5.41,5.326,5.864-.605-1.262.891-4.223.891-6.745,0-2.795-4.492-5.732-6.039-5.862a6.509,6.509,0,0,1,.178,3.2C19165.248,9466.436,19165,9467.47,19165,9468.743Z" transform="translate(-19011.375 -9437.657)" fill="#410066" fill-rule="evenodd"/><path d="M15310,7475c.152,1.8,2.342,4.389,3.6,5.638.988,1,4.365,3.021,6.174,3.069,0-2.462.678-2.058-1.641-2.629a11.411,11.411,0,0,1-3.365-1.427C15311.307,7477.486,15311,7475.667,15310,7475Z" transform="translate(-15202.217 -7474.285)" fill="#410066" fill-rule="evenodd"/><g transform="translate(186.616 34.821)"><path d="M22043.666,10352.6h-.533l.65-1.831a.348.348,0,0,1,.061-.12C22043.844,10351.635,22043.676,10351.813,22043.666,10352.6Zm.178-2.487c.012-.023.047.022.047.048h0S22043.818,10350.124,22043.844,10350.111Zm-1.246,2.129c-1.857-.428-4.594-.178-6.756-.178l-.025-.534c-.025-.1-.045.129-.08-.347-.088-.964,1.119-3.733,1.887-3.733,1.572,0,4.609.013,5.688.523C22043.783,10349.981,22043.051,10350.289,22042.6,10352.24Zm4.615-3.734h.178v.894h-.178Zm.178-1.058h.355v.7h-.355Zm.178-1.605-.178.891A4.164,4.164,0,0,1,22047.568,10345.843Zm-7.637.356h1.059v.178h-1.059Zm1.594-.178c3.047,0,4.268-1.049,4.268,1.6l-.189-.346c-.025-.036-.045-.084-.07-.12-.783-1.33-2.105-.961-4.008-.961Zm5.865-.534h-.357l.2-.7C22047.553,10345.021,22047.6,10345,22047.391,10345.487Zm-11.727-.7c.748.5.586.783,1.246,1.236l-.711,1.068a3.134,3.134,0,0,0-.117-1.306Zm8-1.249c.275.569.061.272.178.88.24,1.117.025,0,.346.891-2.959,0-6.24,1.274-7.4-.059-1.652-1.928-.391-.524-.951-1.712h-.879c.08,1.022.451.641-.18.891a4.483,4.483,0,0,1-.105,1.666c-.275.582-.586.013-.605,1.355h.533l.178,1.414c-.283.145.322.178-.533,0v.715c.666-.143.488-.369.7.7a7.487,7.487,0,0,1,.18,1.786c-1.35,0-1.619-.071-2.133.893h16c-.561-.822-.754-.951-1.785-.715,0-.558-.062-1.651,0-2.142.162-1.473,1.428,1.368,1.428-4.611.652.142.8.226.891-.7a1.049,1.049,0,0,0-1.25,0c-.225-.43-.057-.382-.453-.644-.881-.583-1.354.595-1.354.595-.021.036-.057.071-.082.107a.628.628,0,0,0-.086.094l-.514.55a3.317,3.317,0,0,0-1.242-.359l.307-.2c.391-.537-.189-.537.229-1.392-.764-.4-.32.048-.535-.537h-.361C22043.986,10343.571,22044.465,10343.132,22043.666,10343.536Z" transform="translate(-22031.879 -10342.999)" fill="#410066" fill-rule="evenodd"/><g transform="translate(0 12.975)"><path d="M13.191,6.114a2.92,2.92,0,0,0-.892.094,2.952,2.952,0,0,1-1.428.026l-.356-.45,1.252-.526-.06.143a7.424,7.424,0,0,0,2.042-.2,6.279,6.279,0,0,1,3.5.082c3.437,1.057-.309,3.161-.309,3.161C14.651,7.872,14.368,8.066,13.191,6.114Zm.68-.309c-.036,1.879,3.563,2.639,4.217.833-.4-.584-2.04-1.027-3.208-1.027A2.049,2.049,0,0,0,13.87,5.8ZM0,5.2a14.419,14.419,0,0,1,5.224-.75V4.174h0A15.389,15.389,0,0,1,.407,2.39C2.106,1.284,6.623,3.414,8.623,3.8a1.315,1.315,0,0,1-.306.151,1.315,1.315,0,0,0,.306-.149,3.306,3.306,0,0,0,2.106.356,6.547,6.547,0,0,0,3-1.534c.915-.822.026-1.95,1.739-2.508,1.125-.37,2.519.13,2.645,1.308.158,1.472-1.235,1.058-2.009,2.2-1.069-.608-1.094-1.142-2.625-.239a4.454,4.454,0,0,0-1.714,1.867l-1.247.524c-.736.066-2.016.114-3.446.114C4.377,5.894,1.149,5.726,0,5.2Zm9.4-.572c-.259.666-.188.346.061.785.7-.12.794-.035.475-.8l-.532.01a1.94,1.94,0,0,0-1.356-.363A1.937,1.937,0,0,1,9.4,4.625ZM5.438,4.455q-.094,0-.18-.005Q5.343,4.455,5.438,4.455Zm4.872-.106c.033-.007.062-.008.1-.017C10.372,4.34,10.343,4.341,10.31,4.349ZM8.3,3.963l.006,0Zm6.4-2.169a1.212,1.212,0,0,0,2.335-.366.932.932,0,0,0-1-.854A1.363,1.363,0,0,0,14.7,1.794Z" fill="#fff"/></g></g></g></g></svg>